<?xml version="1.0" encoding="utf-8"?>
<!-- Generator: Adobe Illustrator 23.1.1, SVG Export Plug-In . SVG Version: 6.00 Build 0)  -->
<svg version="1.1" xmlns="http://www.w3.org/2000/svg" xmlns:xlink="http://www.w3.org/1999/xlink" x="0px" y="0px"
	 viewBox="0 0 24 24" style="enable-background:new 0 0 24 24;" xml:space="preserve">
<style type="text/css">
	.st0{fill:none;stroke:#000000;stroke-width:3;stroke-miterlimit:10;}
	.st1{fill:none;stroke:#000000;stroke-width:2;stroke-miterlimit:10;}
	.st2{fill:none;stroke:#FF00FF;stroke-width:0.25;stroke-miterlimit:10;}
	.st3{fill:#009245;stroke:#FBB03B;stroke-width:5;stroke-miterlimit:10;}
	.st4{fill:none;stroke:#000000;stroke-width:5;stroke-miterlimit:10;}
	.st5{fill:#00FF00;}
	.st6{fill:#C1272D;}
	.st7{fill:#FFFFFF;}
	.st8{fill:none;stroke:#000000;stroke-width:5;stroke-linecap:round;stroke-miterlimit:10;}
	.st9{fill:none;stroke:#000000;stroke-width:3;stroke-linecap:round;stroke-miterlimit:10;}
	.st10{fill:#FFFFFF;stroke:#000000;stroke-width:5;stroke-miterlimit:10;}
	.st11{opacity:0.06;}
	.st12{opacity:0.1;}
	.st13{fill:#FFFFFF;stroke:#000000;stroke-width:4;stroke-miterlimit:10;}
</style>
<g id="Layer_1">
</g>
<g id="Layer_2">
	<g>
		<path d="M23.29,18.31l-0.79-1.91c-0.07-0.17-0.26-0.29-0.47-0.29H21.5l-0.85-2.07c-0.07-0.17-0.26-0.29-0.47-0.29h-0.53
			l-0.85-2.07c-0.07-0.17-0.26-0.29-0.47-0.29h-0.53l-0.85-2.07c-0.07-0.17-0.26-0.29-0.47-0.29h-0.53l-0.85-2.07
			c-0.07-0.17-0.26-0.29-0.47-0.29h-0.28V4.38h0.42c0.1,0,0.19-0.09,0.19-0.19c0-0.1-0.09-0.19-0.19-0.19h-0.42V3.35
			c0-0.1-0.08-0.18-0.18-0.18H9.88c-0.1,0-0.18,0.08-0.18,0.18V4H9.27c-0.1,0-0.19,0.09-0.19,0.19c0,0.1,0.09,0.19,0.19,0.19h0.42
			v2.29H9.39c-0.21,0-0.4,0.12-0.47,0.29L8.07,9.03H7.53c-0.21,0-0.4,0.12-0.47,0.29l-0.85,2.07H5.68c-0.21,0-0.4,0.12-0.47,0.29
			l-0.85,2.07H3.82c-0.21,0-0.4,0.12-0.47,0.29L2.5,16.1H1.96c-0.21,0-0.4,0.12-0.47,0.29l-0.79,1.91c-0.1,0.25,0.08,0.52,0.35,0.52
			h9.32v0h3.19v0h9.37C23.21,18.83,23.4,18.56,23.29,18.31z M20.18,14.12c0.06,0,0.11,0.03,0.12,0.05l0.79,1.91h-7.13v-1.97H20.18z
			 M18.32,11.77c0.06,0,0.11,0.03,0.12,0.05l0.79,1.91h-5.28v-1.97H18.32z M16.47,9.41c0.07,0,0.11,0.03,0.12,0.05l0.79,1.91h-3.42
			V9.41H16.47z M14.61,7.05c0.07,0,0.11,0.03,0.12,0.05l0.79,1.91h-1.57V7.05H14.61z M10.07,3.55h3.88V4h-3.88V3.55z M10.05,18.45
			H1.06l0.79-1.91c0.01-0.02,0.05-0.05,0.12-0.05h8.08V18.45z M10.05,16.09H2.91l0.79-1.91c0.01-0.02,0.05-0.05,0.12-0.05h6.23
			V16.09z M10.05,13.74H4.77l0.79-1.91c0.01-0.02,0.05-0.05,0.12-0.05h4.37V13.74z M10.05,11.38H6.63l0.79-1.91
			c0.01-0.02,0.05-0.05,0.12-0.05h2.52V11.38z M10.05,9.02H8.48l0.79-1.91c0.01-0.02,0.05-0.05,0.12-0.05h0.66V9.02z M10.07,6.67
			V4.38h3.88v2.29H13V5.4c0-0.1-0.08-0.18-0.18-0.18h-1.68c-0.1,0-0.18,0.08-0.18,0.18v1.27H10.07z M12.62,5.6v1.07h-1.28V5.6H12.62
			z M13.57,18.45h-3.14V7.06h3.14V18.45z M13.95,18.45v-1.97h8.08c0.06,0,0.11,0.03,0.12,0.05l0.79,1.91H13.95z"/>
		<g>
			<g>
				<path d="M13.04,7.85H11c-0.11,0-0.19-0.09-0.19-0.19c0-0.11,0.09-0.19,0.19-0.19h2.04c0.11,0,0.19,0.09,0.19,0.19
					C13.23,7.76,13.14,7.85,13.04,7.85z"/>
			</g>
			<g>
				<path d="M13.04,8.78H11c-0.11,0-0.19-0.09-0.19-0.19S10.89,8.4,11,8.4h2.04c0.11,0,0.19,0.09,0.19,0.19S13.14,8.78,13.04,8.78z"
					/>
			</g>
			<g>
				<path d="M13.04,9.72H11c-0.11,0-0.19-0.09-0.19-0.19S10.89,9.34,11,9.34h2.04c0.11,0,0.19,0.09,0.19,0.19S13.14,9.72,13.04,9.72
					z"/>
			</g>
			<g>
				<path d="M13.04,10.66H11c-0.11,0-0.19-0.09-0.19-0.19c0-0.11,0.09-0.19,0.19-0.19h2.04c0.11,0,0.19,0.09,0.19,0.19
					C13.23,10.57,13.14,10.66,13.04,10.66z"/>
			</g>
			<g>
				<path d="M13.04,11.6H11c-0.11,0-0.19-0.09-0.19-0.19s0.09-0.19,0.19-0.19h2.04c0.11,0,0.19,0.09,0.19,0.19
					S13.14,11.6,13.04,11.6z"/>
			</g>
			<g>
				<path d="M13.04,12.54H11c-0.11,0-0.19-0.09-0.19-0.19s0.09-0.19,0.19-0.19h2.04c0.11,0,0.19,0.09,0.19,0.19
					S13.14,12.54,13.04,12.54z"/>
			</g>
			<g>
				<path d="M13.04,13.47H11c-0.11,0-0.19-0.09-0.19-0.19s0.09-0.19,0.19-0.19h2.04c0.11,0,0.19,0.09,0.19,0.19
					S13.14,13.47,13.04,13.47z"/>
			</g>
			<g>
				<path d="M13.04,14.41H11c-0.11,0-0.19-0.09-0.19-0.19c0-0.11,0.09-0.19,0.19-0.19h2.04c0.11,0,0.19,0.09,0.19,0.19
					C13.23,14.33,13.14,14.41,13.04,14.41z"/>
			</g>
			<g>
				<path d="M13.04,15.35H11c-0.11,0-0.19-0.09-0.19-0.19c0-0.11,0.09-0.19,0.19-0.19h2.04c0.11,0,0.19,0.09,0.19,0.19
					C13.23,15.26,13.14,15.35,13.04,15.35z"/>
			</g>
			<g>
				<path d="M13.04,16.29H11c-0.11,0-0.19-0.09-0.19-0.19s0.09-0.19,0.19-0.19h2.04c0.11,0,0.19,0.09,0.19,0.19
					S13.14,16.29,13.04,16.29z"/>
			</g>
			<g>
				<path d="M13.04,17.23H11c-0.11,0-0.19-0.09-0.19-0.19s0.09-0.19,0.19-0.19h2.04c0.11,0,0.19,0.09,0.19,0.19
					S13.14,17.23,13.04,17.23z"/>
			</g>
			<g>
				<path d="M13.04,18.16H11c-0.11,0-0.19-0.09-0.19-0.19s0.09-0.19,0.19-0.19h2.04c0.11,0,0.19,0.09,0.19,0.19
					S13.14,18.16,13.04,18.16z"/>
			</g>
		</g>
	</g>
</g>
<g id="Layer_3">
</g>
<g id="Layer_4">
</g>
</svg>
