<?xml version="1.0" encoding="utf-8"?>
<!-- Generator: Adobe Illustrator 23.1.1, SVG Export Plug-In . SVG Version: 6.00 Build 0)  -->
<svg version="1.1" xmlns="http://www.w3.org/2000/svg" xmlns:xlink="http://www.w3.org/1999/xlink" x="0px" y="0px"
	 viewBox="0 0 24 24" style="enable-background:new 0 0 24 24;" xml:space="preserve">
<style type="text/css">
	.st0{fill:none;stroke:#000000;stroke-width:3;stroke-miterlimit:10;}
	.st1{fill:none;stroke:#000000;stroke-width:2;stroke-miterlimit:10;}
	.st2{fill:none;stroke:#FF00FF;stroke-width:0.25;stroke-miterlimit:10;}
	.st3{fill:#009245;stroke:#FBB03B;stroke-width:5;stroke-miterlimit:10;}
	.st4{fill:none;stroke:#000000;stroke-width:5;stroke-miterlimit:10;}
	.st5{fill:#00FF00;}
	.st6{fill:#C1272D;}
	.st7{fill:#FFFFFF;}
	.st8{fill:none;stroke:#000000;stroke-width:5;stroke-linecap:round;stroke-miterlimit:10;}
	.st9{fill:none;stroke:#000000;stroke-width:3;stroke-linecap:round;stroke-miterlimit:10;}
	.st10{fill:#FFFFFF;stroke:#000000;stroke-width:5;stroke-miterlimit:10;}
	.st11{fill:#FFFFFF;stroke:#000000;stroke-width:4;stroke-miterlimit:10;}
</style>
<g id="Layer_1">
</g>
<g id="Layer_2">
	<g>
		<g>
			<path d="M11.13,13.43v2.38c0,0.08-0.06,0.14-0.14,0.14s-0.14-0.06-0.14-0.14v-2.38c0-0.08,0.06-0.14,0.14-0.14
				S11.13,13.35,11.13,13.43z"/>
		</g>
		<g>
			<path d="M11.82,15.8c0,0.08-0.06,0.14-0.14,0.14h0c-0.07,0-0.14-0.06-0.14-0.14l0-2.01c0-0.08,0.06-0.14,0.14-0.14
				c0.08,0,0.14,0.06,0.14,0.14L11.82,15.8z"/>
		</g>
		<g>
			<path d="M12.5,14.16v1.65c0,0.08-0.06,0.14-0.14,0.14s-0.14-0.06-0.14-0.14v-1.65c0-0.08,0.06-0.14,0.14-0.14
				S12.5,14.08,12.5,14.16z"/>
		</g>
		<g>
			<path d="M13.19,14.43v1.37c0,0.08-0.06,0.14-0.14,0.14s-0.14-0.06-0.14-0.14v-1.37c0-0.08,0.06-0.14,0.14-0.14
				S13.19,14.36,13.19,14.43z"/>
		</g>
		<g>
			<path class="st7" d="M16.27,5.98c-0.11,0.52-0.57,0.91-1.12,0.91h-0.69V5.98H16.27z"/>
		</g>
		<g>
			<path d="M17.07,5.52h-4.43c0.15-0.24,0.23-0.6,0.23-1.07c0-0.6-0.49-0.82-0.82-0.82c-0.33,0-0.82,0.22-0.82,0.82
				c0,0.47,0.08,0.83,0.23,1.07H6.93c-0.13,0-0.23,0.1-0.23,0.23c0,0.13,0.1,0.23,0.23,0.23h0.34c0.11,0.77,0.78,1.37,1.58,1.37
				h0.78v1.32c0,0.13,0.07,0.24,0.19,0.29l0.27,0.12v7.18H9.99c-0.18,0-0.32,0.14-0.32,0.32v0.41H9.62c-0.18,0-0.32,0.14-0.32,0.32
				v2.74c0,0.18,0.14,0.32,0.32,0.32h4.75c0.18,0,0.32-0.14,0.32-0.32v-2.74c0-0.18-0.14-0.32-0.32-0.32h-0.05v-0.41
				c0-0.18-0.14-0.32-0.32-0.32h-0.09v-5.56l0.1,0.04c0.04,0.02,0.09,0.03,0.13,0.03c0.06,0,0.12-0.02,0.17-0.05
				c0.09-0.06,0.15-0.16,0.15-0.27V7.35h0.69c0.8,0,1.47-0.6,1.58-1.37h0.34c0.13,0,0.23-0.1,0.23-0.23
				C17.3,5.62,17.2,5.52,17.07,5.52z M9.62,6.89H8.85c-0.55,0-1.01-0.39-1.12-0.91h1.9V6.89z M12.05,4.08
				c0.06,0,0.37,0.02,0.37,0.37c0,0.61-0.14,0.83-0.22,0.9c-0.05,0.05-0.1,0.06-0.11,0.06L12.06,5.4l-0.05,0.01c0,0-0.05,0-0.1-0.05
				c-0.07-0.06-0.23-0.27-0.23-0.92C11.68,4.12,11.94,4.08,12.05,4.08z M10.77,9.36c0.06,0,0.12-0.02,0.17-0.05
				c0.09-0.06,0.15-0.16,0.15-0.27V5.98h1.92v4.11c0,0.13,0.07,0.24,0.19,0.29l0.27,0.12v3.17l-2.92-1.7v-0.41l0.9,0.44
				c0.02,0.01,0.04,0.01,0.06,0.01c0.05,0,0.1-0.03,0.12-0.08c0.03-0.07,0-0.15-0.06-0.18l-1.02-0.5v-0.43l0.9,0.44
				c0.02,0.01,0.04,0.01,0.06,0.01c0.05,0,0.1-0.03,0.12-0.08c0.03-0.07,0-0.15-0.06-0.18l-1.02-0.5V10.1l0.9,0.44
				c0.02,0.01,0.04,0.01,0.06,0.01c0.05,0,0.1-0.03,0.12-0.08c0.03-0.07,0-0.15-0.06-0.18l-1.02-0.5v-0.5l0.1,0.04
				C10.68,9.35,10.72,9.36,10.77,9.36z M13.87,16.72v0.27h-3.75v-0.27H13.87z M10.54,16.22v-3.67l2.92,1.7v1.97H10.54z M10.08,5.98
				h0.55v2.85l-0.09-0.04l-0.46-0.2V5.98z M14.24,17.45v2.47H9.76v-2.47H14.24z M14.01,10.25l-0.09-0.04L13.46,10V6.02h0.55V10.25z
				 M15.15,6.89h-0.69V5.98h1.81C16.17,6.5,15.71,6.89,15.15,6.89z"/>
		</g>
	</g>
</g>
<g id="Layer_3">
</g>
</svg>
