<?xml version="1.0" encoding="utf-8"?>
<!-- Generator: Adobe Illustrator 23.1.1, SVG Export Plug-In . SVG Version: 6.00 Build 0)  -->
<svg version="1.1" xmlns="http://www.w3.org/2000/svg" xmlns:xlink="http://www.w3.org/1999/xlink" x="0px" y="0px"
	 viewBox="0 0 24 24" style="enable-background:new 0 0 24 24;" xml:space="preserve">
<style type="text/css">
	.st0{fill:none;stroke:#000000;stroke-width:3;stroke-miterlimit:10;}
	.st1{fill:none;stroke:#000000;stroke-width:2;stroke-miterlimit:10;}
	.st2{fill:none;stroke:#FF00FF;stroke-width:0.25;stroke-miterlimit:10;}
	.st3{fill:#009245;stroke:#FBB03B;stroke-width:5;stroke-miterlimit:10;}
	.st4{fill:none;stroke:#000000;stroke-width:5;stroke-miterlimit:10;}
	.st5{fill:#00FF00;}
	.st6{fill:#C1272D;}
	.st7{fill:#FFFFFF;}
	.st8{fill:none;stroke:#000000;stroke-width:5;stroke-linecap:round;stroke-miterlimit:10;}
	.st9{fill:none;stroke:#000000;stroke-width:3;stroke-linecap:round;stroke-miterlimit:10;}
	.st10{fill:#FFFFFF;stroke:#000000;stroke-width:5;stroke-miterlimit:10;}
	.st11{opacity:0.06;}
	.st12{opacity:0.1;}
	.st13{fill:#FFFFFF;stroke:#000000;stroke-width:4;stroke-miterlimit:10;}
</style>
<g id="Layer_1">
</g>
<g id="Layer_2">
	<g>
		<g>
			<g>
				<path d="M5.06,17.44c-0.12,0-0.22-0.1-0.22-0.22v-1.82c0-0.12,0.1-0.22,0.22-0.22s0.22,0.1,0.22,0.22v1.82
					C5.29,17.34,5.19,17.44,5.06,17.44z"/>
			</g>
			<g>
				<path d="M6.32,17.44c-0.12,0-0.22-0.1-0.22-0.22v-1.82c0-0.12,0.1-0.22,0.22-0.22s0.22,0.1,0.22,0.22v1.82
					C6.54,17.34,6.44,17.44,6.32,17.44z"/>
			</g>
			<g>
				<path d="M7.57,17.44c-0.12,0-0.22-0.1-0.22-0.22v-1.82c0-0.12,0.1-0.22,0.22-0.22s0.22,0.1,0.22,0.22v1.82
					C7.79,17.34,7.69,17.44,7.57,17.44z"/>
			</g>
			<g>
				<path d="M8.82,17.44c-0.12,0-0.22-0.1-0.22-0.22v-1.82c0-0.12,0.1-0.22,0.22-0.22s0.22,0.1,0.22,0.22v1.82
					C9.04,17.34,8.94,17.44,8.82,17.44z"/>
			</g>
			<g>
				<path d="M10.07,17.44c-0.12,0-0.22-0.1-0.22-0.22v-1.82c0-0.12,0.1-0.22,0.22-0.22c0.12,0,0.22,0.1,0.22,0.22v1.82
					C10.3,17.34,10.2,17.44,10.07,17.44z"/>
			</g>
			<g>
				<path d="M11.33,17.44c-0.12,0-0.22-0.1-0.22-0.22v-1.82c0-0.12,0.1-0.22,0.22-0.22s0.22,0.1,0.22,0.22v1.82
					C11.55,17.34,11.45,17.44,11.33,17.44z"/>
			</g>
			<g>
				<path d="M12.58,17.44c-0.12,0-0.22-0.1-0.22-0.22v-1.82c0-0.12,0.1-0.22,0.22-0.22s0.22,0.1,0.22,0.22v1.82
					C12.8,17.34,12.7,17.44,12.58,17.44z"/>
			</g>
			<g>
				<path d="M13.83,17.44c-0.12,0-0.22-0.1-0.22-0.22v-1.82c0-0.12,0.1-0.22,0.22-0.22c0.12,0,0.22,0.1,0.22,0.22v1.82
					C14.05,17.34,13.95,17.44,13.83,17.44z"/>
			</g>
			<g>
				<path d="M15.08,17.44c-0.12,0-0.22-0.1-0.22-0.22v-1.82c0-0.12,0.1-0.22,0.22-0.22c0.12,0,0.22,0.1,0.22,0.22v1.82
					C15.31,17.34,15.21,17.44,15.08,17.44z"/>
			</g>
			<g>
				<path d="M16.34,17.44c-0.12,0-0.22-0.1-0.22-0.22v-1.82c0-0.12,0.1-0.22,0.22-0.22s0.22,0.1,0.22,0.22v1.82
					C16.56,17.34,16.46,17.44,16.34,17.44z"/>
			</g>
			<g>
				<path d="M17.59,17.44c-0.12,0-0.22-0.1-0.22-0.22v-1.82c0-0.12,0.1-0.22,0.22-0.22c0.12,0,0.22,0.1,0.22,0.22v1.82
					C17.81,17.34,17.71,17.44,17.59,17.44z"/>
			</g>
			<g>
				<path d="M18.84,17.44c-0.12,0-0.22-0.1-0.22-0.22v-1.82c0-0.12,0.1-0.22,0.22-0.22s0.22,0.1,0.22,0.22v1.82
					C19.06,17.34,18.96,17.44,18.84,17.44z"/>
			</g>
		</g>
		<g>
			<g>
				<path d="M5.06,13.04c-0.12,0-0.22-0.1-0.22-0.22v-1.82c0-0.12,0.1-0.22,0.22-0.22s0.22,0.1,0.22,0.22v1.82
					C5.29,12.94,5.19,13.04,5.06,13.04z"/>
			</g>
			<g>
				<path d="M6.32,13.04c-0.12,0-0.22-0.1-0.22-0.22v-1.82c0-0.12,0.1-0.22,0.22-0.22s0.22,0.1,0.22,0.22v1.82
					C6.54,12.94,6.44,13.04,6.32,13.04z"/>
			</g>
			<g>
				<path d="M7.57,13.04c-0.12,0-0.22-0.1-0.22-0.22v-1.82c0-0.12,0.1-0.22,0.22-0.22s0.22,0.1,0.22,0.22v1.82
					C7.79,12.94,7.69,13.04,7.57,13.04z"/>
			</g>
			<g>
				<path d="M8.82,13.04c-0.12,0-0.22-0.1-0.22-0.22v-1.82c0-0.12,0.1-0.22,0.22-0.22s0.22,0.1,0.22,0.22v1.82
					C9.04,12.94,8.94,13.04,8.82,13.04z"/>
			</g>
			<g>
				<path d="M10.07,13.04c-0.12,0-0.22-0.1-0.22-0.22v-1.82c0-0.12,0.1-0.22,0.22-0.22c0.12,0,0.22,0.1,0.22,0.22v1.82
					C10.3,12.94,10.2,13.04,10.07,13.04z"/>
			</g>
			<g>
				<path d="M11.33,13.04c-0.12,0-0.22-0.1-0.22-0.22v-1.82c0-0.12,0.1-0.22,0.22-0.22s0.22,0.1,0.22,0.22v1.82
					C11.55,12.94,11.45,13.04,11.33,13.04z"/>
			</g>
			<g>
				<path d="M12.58,13.04c-0.12,0-0.22-0.1-0.22-0.22v-1.82c0-0.12,0.1-0.22,0.22-0.22s0.22,0.1,0.22,0.22v1.82
					C12.8,12.94,12.7,13.04,12.58,13.04z"/>
			</g>
			<g>
				<path d="M13.83,13.04c-0.12,0-0.22-0.1-0.22-0.22v-1.82c0-0.12,0.1-0.22,0.22-0.22c0.12,0,0.22,0.1,0.22,0.22v1.82
					C14.05,12.94,13.95,13.04,13.83,13.04z"/>
			</g>
			<g>
				<path d="M15.08,13.04c-0.12,0-0.22-0.1-0.22-0.22v-1.82c0-0.12,0.1-0.22,0.22-0.22c0.12,0,0.22,0.1,0.22,0.22v1.82
					C15.31,12.94,15.21,13.04,15.08,13.04z"/>
			</g>
			<g>
				<path d="M16.34,13.04c-0.12,0-0.22-0.1-0.22-0.22v-1.82c0-0.12,0.1-0.22,0.22-0.22s0.22,0.1,0.22,0.22v1.82
					C16.56,12.94,16.46,13.04,16.34,13.04z"/>
			</g>
			<g>
				<path d="M17.59,13.04c-0.12,0-0.22-0.1-0.22-0.22v-1.82c0-0.12,0.1-0.22,0.22-0.22c0.12,0,0.22,0.1,0.22,0.22v1.82
					C17.81,12.94,17.71,13.04,17.59,13.04z"/>
			</g>
			<g>
				<path d="M18.84,13.04c-0.12,0-0.22-0.1-0.22-0.22v-1.82c0-0.12,0.1-0.22,0.22-0.22s0.22,0.1,0.22,0.22v1.82
					C19.06,12.94,18.96,13.04,18.84,13.04z"/>
			</g>
		</g>
		<g>
			<g>
				<path d="M5.06,8.83c-0.12,0-0.22-0.1-0.22-0.22V6.78c0-0.12,0.1-0.22,0.22-0.22s0.22,0.1,0.22,0.22V8.6
					C5.29,8.73,5.19,8.83,5.06,8.83z"/>
			</g>
			<g>
				<path d="M6.32,8.83c-0.12,0-0.22-0.1-0.22-0.22V6.78c0-0.12,0.1-0.22,0.22-0.22s0.22,0.1,0.22,0.22V8.6
					C6.54,8.73,6.44,8.83,6.32,8.83z"/>
			</g>
			<g>
				<path d="M7.57,8.83c-0.12,0-0.22-0.1-0.22-0.22V6.78c0-0.12,0.1-0.22,0.22-0.22s0.22,0.1,0.22,0.22V8.6
					C7.79,8.73,7.69,8.83,7.57,8.83z"/>
			</g>
			<g>
				<path d="M8.82,8.83C8.7,8.83,8.6,8.73,8.6,8.6V6.78c0-0.12,0.1-0.22,0.22-0.22c0.12,0,0.22,0.1,0.22,0.22V8.6
					C9.05,8.73,8.95,8.83,8.82,8.83z"/>
			</g>
			<g>
				<path d="M10.08,8.83c-0.12,0-0.22-0.1-0.22-0.22V6.78c0-0.12,0.1-0.22,0.22-0.22c0.12,0,0.22,0.1,0.22,0.22V8.6
					C10.3,8.73,10.2,8.83,10.08,8.83z"/>
			</g>
			<g>
				<path d="M11.33,8.83c-0.12,0-0.22-0.1-0.22-0.22V6.78c0-0.12,0.1-0.22,0.22-0.22c0.12,0,0.22,0.1,0.22,0.22V8.6
					C11.55,8.73,11.45,8.83,11.33,8.83z"/>
			</g>
		</g>
		<g>
			<g>
				<path d="M19.88,9.56H14.8l-3.04-4.11c-0.09-0.12-0.23-0.19-0.38-0.19H4.15c-0.26,0-0.48,0.21-0.48,0.48V18.3
					c0,0.25,0.2,0.45,0.45,0.45h15.75c0.25,0,0.45-0.2,0.45-0.45v-8.29C20.32,9.76,20.12,9.56,19.88,9.56z M4.12,5.73
					c0-0.02,0.01-0.03,0.03-0.03h7.22c0.01,0,0.02,0,0.02,0.01l2.85,3.85l0.02,0.03H4.12V5.73z M19.88,18.3H4.12v-3.97h15.75V18.3z
					 M19.88,13.88H4.12v-3.87h15.75V13.88z"/>
			</g>
		</g>
	</g>
</g>
<g id="Layer_3">
</g>
<g id="Layer_4">
</g>
</svg>
