<?xml version="1.0" encoding="utf-8"?>
<!-- Generator: Adobe Illustrator 23.1.1, SVG Export Plug-In . SVG Version: 6.00 Build 0)  -->
<svg version="1.1" xmlns="http://www.w3.org/2000/svg" xmlns:xlink="http://www.w3.org/1999/xlink" x="0px" y="0px"
	 viewBox="0 0 24 24" style="enable-background:new 0 0 24 24;" xml:space="preserve">
<style type="text/css">
	.st0{fill:none;stroke:#000000;stroke-width:3;stroke-miterlimit:10;}
	.st1{fill:none;stroke:#000000;stroke-width:2;stroke-miterlimit:10;}
	.st2{fill:none;stroke:#FF00FF;stroke-width:0.25;stroke-miterlimit:10;}
	.st3{fill:#009245;stroke:#FBB03B;stroke-width:5;stroke-miterlimit:10;}
	.st4{fill:none;stroke:#000000;stroke-width:5;stroke-miterlimit:10;}
	.st5{fill:#00FF00;}
	.st6{fill:#C1272D;}
	.st7{fill:#FFFFFF;}
	.st8{fill:none;stroke:#000000;stroke-width:5;stroke-linecap:round;stroke-miterlimit:10;}
	.st9{fill:none;stroke:#000000;stroke-width:3;stroke-linecap:round;stroke-miterlimit:10;}
	.st10{fill:#FFFFFF;stroke:#000000;stroke-width:5;stroke-miterlimit:10;}
	.st11{fill:#FFFFFF;stroke:#000000;stroke-width:4;stroke-miterlimit:10;}
</style>
<g id="Layer_1">
</g>
<g id="Layer_2">
	<g>
		<path d="M9.15,7.96c0.18,0,0.33,0.15,0.33,0.33v0.99H8.58V8.29c0-0.18,0.15-0.33,0.33-0.33H9.15 M9.15,7.54H8.91
			c-0.41,0-0.74,0.33-0.74,0.74v1.24c0,0.09,0.07,0.17,0.17,0.17h1.4c0.09,0,0.17-0.07,0.17-0.17V8.29C9.9,7.88,9.56,7.54,9.15,7.54
			L9.15,7.54z"/>
		<path d="M12.12,7.96c0.18,0,0.33,0.15,0.33,0.33v0.99h-0.91V8.29c0-0.18,0.15-0.33,0.33-0.33H12.12 M12.12,7.54h-0.25
			c-0.41,0-0.74,0.33-0.74,0.74v1.24c0,0.09,0.07,0.17,0.17,0.17h1.4c0.09,0,0.17-0.07,0.17-0.17V8.29
			C12.87,7.88,12.53,7.54,12.12,7.54L12.12,7.54z"/>
		<path d="M15.09,7.96c0.18,0,0.33,0.15,0.33,0.33v0.99h-0.91V8.29c0-0.18,0.15-0.33,0.33-0.33H15.09 M15.09,7.54h-0.25
			c-0.41,0-0.74,0.33-0.74,0.74v1.24c0,0.09,0.07,0.17,0.17,0.17h1.4c0.09,0,0.17-0.07,0.17-0.17V8.29
			C15.84,7.88,15.5,7.54,15.09,7.54L15.09,7.54z"/>
		<g>
			<g>
				<path d="M9.03,17.9c-0.11,0-0.21-0.09-0.21-0.21V11.4c0-0.11,0.09-0.21,0.21-0.21c0.11,0,0.21,0.09,0.21,0.21v6.29
					C9.24,17.81,9.14,17.9,9.03,17.9z"/>
			</g>
			<g>
				<path d="M12,17.9c-0.11,0-0.21-0.09-0.21-0.21V11.4c0-0.11,0.09-0.21,0.21-0.21s0.21,0.09,0.21,0.21v6.29
					C12.21,17.81,12.11,17.9,12,17.9z"/>
			</g>
			<g>
				<path d="M14.97,17.9c-0.11,0-0.21-0.09-0.21-0.21V11.4c0-0.11,0.09-0.21,0.21-0.21c0.11,0,0.21,0.09,0.21,0.21v6.29
					C15.18,17.81,15.08,17.9,14.97,17.9z"/>
			</g>
		</g>
		<g>
			<g>
				<path d="M18.11,9.81c-0.11,0-0.21-0.09-0.21-0.21v-0.5c0-0.11,0.09-0.21,0.21-0.21S18.32,9,18.32,9.11v0.5
					C18.32,9.72,18.23,9.81,18.11,9.81z"/>
			</g>
			<g>
				<path d="M19.4,9.81c-0.11,0-0.21-0.09-0.21-0.21v-0.5c0-0.11,0.09-0.21,0.21-0.21c0.11,0,0.21,0.09,0.21,0.21v0.5
					C19.61,9.72,19.52,9.81,19.4,9.81z"/>
			</g>
			<g>
				<path d="M20.69,9.81c-0.11,0-0.21-0.09-0.21-0.21v-0.5c0-0.11,0.09-0.21,0.21-0.21S20.9,9,20.9,9.11v0.5
					C20.9,9.72,20.81,9.81,20.69,9.81z"/>
			</g>
			<g>
				<path d="M21.98,9.81c-0.11,0-0.21-0.09-0.21-0.21v-0.5c0-0.11,0.09-0.21,0.21-0.21c0.11,0,0.21,0.09,0.21,0.21v0.5
					C22.19,9.72,22.1,9.81,21.98,9.81z"/>
			</g>
		</g>
		<g>
			<g>
				<path d="M2.02,9.81c-0.11,0-0.21-0.09-0.21-0.21v-0.5C1.81,9,1.9,8.91,2.02,8.91S2.22,9,2.22,9.11v0.5
					C2.22,9.72,2.13,9.81,2.02,9.81z"/>
			</g>
			<g>
				<path d="M3.31,9.81c-0.11,0-0.21-0.09-0.21-0.21v-0.5C3.1,9,3.19,8.91,3.31,8.91S3.51,9,3.51,9.11v0.5
					C3.51,9.72,3.42,9.81,3.31,9.81z"/>
			</g>
			<g>
				<path d="M4.6,9.81c-0.11,0-0.21-0.09-0.21-0.21v-0.5C4.39,9,4.49,8.91,4.6,8.91S4.81,9,4.81,9.11v0.5
					C4.81,9.72,4.71,9.81,4.6,9.81z"/>
			</g>
			<g>
				<path d="M5.89,9.81c-0.11,0-0.21-0.09-0.21-0.21v-0.5c0-0.11,0.09-0.21,0.21-0.21C6.01,8.91,6.1,9,6.1,9.11v0.5
					C6.1,9.72,6.01,9.81,5.89,9.81z"/>
			</g>
		</g>
		<path d="M22.81,8.11L17.28,8.1V7.11l0.58,0h0c0.11,0,0.21-0.09,0.21-0.21c0-0.11-0.09-0.21-0.21-0.21l-0.58,0V4.74
			c0-0.23-0.18-0.41-0.41-0.41H7.13c-0.23,0-0.41,0.18-0.41,0.41v1.92l-0.58,0h0c-0.11,0-0.21,0.09-0.21,0.21s0.09,0.21,0.21,0.21
			l0.58,0v1.04L1.19,8.1c-0.11,0-0.21,0.09-0.21,0.21c0,0.11,0.09,0.21,0.21,0.21l5.53,0.01v1.66l-5.25-0.01
			c-0.11,0-0.2,0.09-0.2,0.2c0,0.11,0.09,0.2,0.2,0.2l5.26,0.01v8.68c0,0.23,0.18,0.41,0.41,0.41h9.74c0.23,0,0.41-0.18,0.41-0.41
			v-8.69l5.25,0.01c0.11,0,0.2-0.09,0.2-0.2c0-0.11-0.09-0.2-0.2-0.2l-5.26-0.01V8.51l5.53,0.01c0.11,0,0.21-0.09,0.21-0.21
			C23.02,8.2,22.92,8.11,22.81,8.11z M16.87,19.26H7.13V7.07l9.74,0.03V19.26z M16.87,6.69L7.13,6.66V4.74h0.83v0.58
			c0,0.11,0.09,0.21,0.21,0.21s0.21-0.09,0.21-0.21V4.74h0.87v0.58c0,0.11,0.09,0.21,0.21,0.21c0.11,0,0.21-0.09,0.21-0.21V4.74
			h0.86v0.58c0,0.11,0.09,0.21,0.21,0.21c0.11,0,0.21-0.09,0.21-0.21V4.74h0.87v0.58c0,0.11,0.09,0.21,0.21,0.21
			s0.21-0.09,0.21-0.21V4.74h0.87v0.58c0,0.11,0.09,0.21,0.21,0.21c0.11,0,0.21-0.09,0.21-0.21V4.74h0.86v0.58
			c0,0.11,0.09,0.21,0.21,0.21c0.11,0,0.21-0.09,0.21-0.21V4.74h0.87v0.58c0,0.11,0.09,0.21,0.21,0.21s0.21-0.09,0.21-0.21V4.74
			h0.83V6.69z"/>
	</g>
</g>
<g id="Layer_3">
</g>
</svg>
