<?xml version="1.0" encoding="utf-8"?>
<!-- Generator: Adobe Illustrator 23.1.1, SVG Export Plug-In . SVG Version: 6.00 Build 0)  -->
<svg version="1.1" xmlns="http://www.w3.org/2000/svg" xmlns:xlink="http://www.w3.org/1999/xlink" x="0px" y="0px"
	 viewBox="0 0 24 24" style="enable-background:new 0 0 24 24;" xml:space="preserve">
<style type="text/css">
	.st0{fill:none;stroke:#000000;stroke-width:3;stroke-miterlimit:10;}
	.st1{fill:none;stroke:#000000;stroke-width:2;stroke-miterlimit:10;}
	.st2{fill:none;stroke:#FF00FF;stroke-width:0.25;stroke-miterlimit:10;}
	.st3{fill:#009245;stroke:#FBB03B;stroke-width:5;stroke-miterlimit:10;}
	.st4{fill:none;stroke:#000000;stroke-width:5;stroke-miterlimit:10;}
	.st5{fill:#00FF00;}
	.st6{fill:#C1272D;}
	.st7{fill:#FFFFFF;}
	.st8{fill:none;stroke:#000000;stroke-width:5;stroke-linecap:round;stroke-miterlimit:10;}
	.st9{fill:none;stroke:#000000;stroke-width:3;stroke-linecap:round;stroke-miterlimit:10;}
	.st10{fill:#FFFFFF;stroke:#000000;stroke-width:5;stroke-miterlimit:10;}
	.st11{fill:#FFFFFF;stroke:#000000;stroke-width:4;stroke-miterlimit:10;}
</style>
<g id="Layer_1">
</g>
<g id="Layer_2">
	<g>
		<g>
			<path d="M14.07,16.69h-4.05c-0.08,0-0.14-0.06-0.14-0.14s0.06-0.14,0.14-0.14h4.05c0.08,0,0.14,0.06,0.14,0.14
				S14.14,16.69,14.07,16.69z"/>
		</g>
		<g>
			<g>
				<g>
					<path d="M5.7,16.76c-0.13,0-0.23-0.1-0.23-0.23v-1.28c0-0.13,0.1-0.23,0.23-0.23s0.23,0.1,0.23,0.23v1.28
						C5.93,16.65,5.83,16.76,5.7,16.76z"/>
				</g>
			</g>
			<g>
				<g>
					<path d="M7.03,16.76c-0.13,0-0.23-0.1-0.23-0.23v-1.28c0-0.13,0.1-0.23,0.23-0.23s0.23,0.1,0.23,0.23v1.28
						C7.25,16.65,7.15,16.76,7.03,16.76z"/>
				</g>
			</g>
			<g>
				<g>
					<path d="M8.35,16.76c-0.13,0-0.23-0.1-0.23-0.23v-1.28c0-0.13,0.1-0.23,0.23-0.23c0.13,0,0.23,0.1,0.23,0.23v1.28
						C8.57,16.65,8.47,16.76,8.35,16.76z"/>
				</g>
			</g>
		</g>
		<g>
			<g>
				<g>
					<path d="M10.27,14.84c-0.13,0-0.23-0.1-0.23-0.23v-1.28c0-0.13,0.1-0.23,0.23-0.23c0.13,0,0.23,0.1,0.23,0.23v1.28
						C10.5,14.74,10.4,14.84,10.27,14.84z"/>
				</g>
			</g>
			<g>
				<g>
					<path d="M11.59,14.84c-0.13,0-0.23-0.1-0.23-0.23v-1.28c0-0.13,0.1-0.23,0.23-0.23c0.13,0,0.23,0.1,0.23,0.23v1.28
						C11.82,14.74,11.72,14.84,11.59,14.84z"/>
				</g>
			</g>
			<g>
				<g>
					<path d="M12.91,14.84c-0.13,0-0.23-0.1-0.23-0.23v-1.28c0-0.13,0.1-0.23,0.23-0.23s0.23,0.1,0.23,0.23v1.28
						C13.14,14.74,13.04,14.84,12.91,14.84z"/>
				</g>
			</g>
		</g>
		<g>
			<g>
				<g>
					<path d="M20.13,18.22H19.9V17.3c0-0.18-0.14-0.32-0.32-0.32H19.5l-0.04-3.04l-1.68-2.64L16.4,4.23l-2.6,0.18l-3.05,3.46
						L10.2,8.14H6.16L5.41,9.17V11L4.56,12.4v4.59H4.42c-0.18,0-0.32,0.14-0.32,0.32v0.91H3.87c-0.18,0-0.32,0.14-0.32,0.32v0.91
						c0,0.18,0.14,0.32,0.32,0.32h16.26c0.18,0,0.32-0.14,0.32-0.32v-0.91C20.45,18.36,20.31,18.22,20.13,18.22z M5.87,9.32
						L6.39,8.6h2.89L7.45,9.51l-1.58,1.11V9.32z M5.01,12.53l0.8-1.3l1.86-1.31l3.36-1.68l1.26-1.42l0.35,0.61L11.3,8.24v1h0.46
						V8.49l0.95-0.58l0.02,0.7l0.46-0.02l-0.04-1.21l-0.53-0.94l1.41-1.6l2.01-0.14l0.14,0.7l-1.58,1.3l0.17,2.19l0.45-0.04
						l-0.1-1.26l0.42,0.11l0.51,1.25l0.42-0.17l-0.6-1.46l-0.79-0.22v0l-0.02-0.21l1.21-0.99l0.78,4.01l-1.22,1.61v1.75h0.46v-0.9
						l0.5,0.31v1.78h0.46v-2.03l-0.95-0.6V11.7l0.88-1.17l0.17,0.89l0.01,0.04l1.66,2.61l0.04,2.91h-4.08v-1.02
						c0-0.22-0.17-0.39-0.38-0.39h-0.44V11c0-0.1-0.08-0.18-0.18-0.18h-1c-0.1,0-0.18,0.08-0.18,0.18v1h-0.46v-1
						c0-0.1-0.08-0.18-0.18-0.18h-1c-0.1,0-0.18,0.08-0.18,0.18v1h-0.46v-1c0-0.1-0.08-0.18-0.18-0.18h-1
						c-0.1,0-0.18,0.08-0.18,0.18v1H8.67v-1c0-0.1-0.08-0.18-0.18-0.18h-1c-0.1,0-0.18,0.08-0.18,0.18v2.15H6.57
						c-0.1,0-0.18,0.08-0.18,0.18v1H5.93v-1c0-0.1-0.08-0.18-0.18-0.18H5.01V12.53z M8.39,13.15c-0.1,0-0.18,0.08-0.18,0.18v1H7.75
						v-1.87h5.94v3.11H9.58v-2.24c0-0.1-0.08-0.18-0.18-0.18H8.39z M9.12,13.61v0.73H8.67v-0.73H9.12z M7.75,12.01v-0.73h0.46v0.73
						H7.75z M9.58,12.01v-0.73h0.46v0.73H9.58z M11.41,12.01v-0.73h0.46v0.73H11.41z M13.23,12.01v-0.73h0.46v0.73H13.23z
						 M9.58,16.03h4.93v0.96H9.58V16.03z M7.3,13.61v0.73H6.84v-0.73H7.3z M5.01,13.61h0.46v0.73H5.01V13.61z M5.01,14.79h4.11v2.19
						H5.01V14.79z M4.56,17.44h14.89v0.73H4.56V17.44z M19.99,19.31H4.01v-0.64h15.99V19.31z"/>
				</g>
			</g>
		</g>
	</g>
</g>
<g id="Layer_3">
</g>
</svg>
