<?xml version="1.0" encoding="utf-8"?>
<!-- Generator: Adobe Illustrator 23.1.1, SVG Export Plug-In . SVG Version: 6.00 Build 0)  -->
<svg version="1.1" xmlns="http://www.w3.org/2000/svg" xmlns:xlink="http://www.w3.org/1999/xlink" x="0px" y="0px"
	 viewBox="0 0 24 24" style="enable-background:new 0 0 24 24;" xml:space="preserve">
<style type="text/css">
	.st0{fill:none;stroke:#000000;stroke-width:3;stroke-miterlimit:10;}
	.st1{fill:none;stroke:#000000;stroke-width:2;stroke-miterlimit:10;}
	.st2{fill:none;stroke:#FF00FF;stroke-width:0.25;stroke-miterlimit:10;}
	.st3{fill:#009245;stroke:#FBB03B;stroke-width:5;stroke-miterlimit:10;}
	.st4{fill:none;stroke:#000000;stroke-width:5;stroke-miterlimit:10;}
	.st5{fill:#00FF00;}
	.st6{fill:#C1272D;}
	.st7{fill:#FFFFFF;}
	.st8{fill:none;stroke:#000000;stroke-width:5;stroke-linecap:round;stroke-miterlimit:10;}
	.st9{fill:none;stroke:#000000;stroke-width:3;stroke-linecap:round;stroke-miterlimit:10;}
	.st10{fill:#FFFFFF;stroke:#000000;stroke-width:5;stroke-miterlimit:10;}
	.st11{fill:#FFFFFF;stroke:#000000;stroke-width:4;stroke-miterlimit:10;}
</style>
<g id="Layer_1">
</g>
<g id="Layer_2">
	<g>
		<g>
			<g>
				<path d="M6.57,7.91v1.6c0,0.11-0.09,0.2-0.2,0.2s-0.2-0.09-0.2-0.2v-1.6c0-0.11,0.09-0.2,0.2-0.2S6.57,7.8,6.57,7.91z"/>
			</g>
			<g>
				<path d="M12.24,7.91v1.6c0,0.11-0.09,0.2-0.2,0.2c-0.11,0-0.2-0.09-0.2-0.2v-1.6c0-0.11,0.09-0.2,0.2-0.2
					C12.15,7.71,12.24,7.8,12.24,7.91z"/>
			</g>
			<g>
				<path d="M17.9,7.91v1.6c0,0.11-0.09,0.2-0.2,0.2c-0.11,0-0.2-0.09-0.2-0.2v-1.6c0-0.11,0.09-0.2,0.2-0.2
					C17.81,7.71,17.9,7.8,17.9,7.91z"/>
			</g>
			<g>
				<path d="M6.57,15.33v1.6c0,0.11-0.09,0.2-0.2,0.2s-0.2-0.09-0.2-0.2v-1.6c0-0.11,0.09-0.2,0.2-0.2S6.57,15.22,6.57,15.33z"/>
			</g>
			<g>
				<g>
					<path d="M17.91,15.37v1.6c0,0.11-0.09,0.2-0.2,0.2c-0.11,0-0.2-0.09-0.2-0.2v-1.6c0-0.11,0.09-0.2,0.2-0.2
						C17.82,15.17,17.91,15.26,17.91,15.37z"/>
				</g>
				<g>
					<path d="M19.38,5.46l-3.3-1.17c-0.02-0.01-0.05-0.01-0.07-0.01c-0.1,0-0.19,0.07-0.19,0.17v6.78h-2.31V6.2l0.24-1.53
						c0.04-0.24-0.15-0.46-0.39-0.46h-2.66c-0.24,0-0.43,0.22-0.39,0.46l0.24,1.53v5.03H8.17V4.45c0-0.09-0.09-0.17-0.19-0.17
						c-0.02,0-0.05,0-0.07,0.01l-3.3,1.17C4.55,5.49,4.5,5.55,4.5,5.61V19.8h15V5.61C19.5,5.55,19.45,5.49,19.38,5.46z M13.37,4.6
						l-0.19,1.2H10.9l-0.19-1.2H13.37z M13.12,6.2v5.03h-2.15V6.2H13.12z M4.9,5.78l2.87-1.02V5.8H4.9V5.78z M4.9,6.2h2.87v5.03H4.9
						V6.2z M4.9,19.4v-6.58h2.87v6.58H4.9z M9.76,19.4H8.17v-6.58h1.59V19.4z M12.37,19.31h-0.77v-2.15h0.77V19.31z M13.86,19.4
						h-1.08v-2.25c0-0.22-0.18-0.4-0.4-0.4h-0.77c-0.22,0-0.4,0.18-0.4,0.4v2.25h-1.05v-6.58h3.7V19.4z M15.83,19.4h-1.57v-6.58
						h1.57V19.4z M19.1,19.4h-2.87v-6.58h2.87V19.4z M19.1,12.42H4.9v-0.8h14.2V12.42z M19.1,11.22h-2.87V6.2h2.87V11.22z M19.1,5.8
						h-2.87V4.77l2.87,1.02V5.8z"/>
				</g>
			</g>
		</g>
	</g>
</g>
<g id="Layer_3">
</g>
</svg>
