<?xml version="1.0" encoding="utf-8"?>
<!-- Generator: Adobe Illustrator 23.1.1, SVG Export Plug-In . SVG Version: 6.00 Build 0)  -->
<svg version="1.1" xmlns="http://www.w3.org/2000/svg" xmlns:xlink="http://www.w3.org/1999/xlink" x="0px" y="0px"
	 viewBox="0 0 24 24" style="enable-background:new 0 0 24 24;" xml:space="preserve">
<style type="text/css">
	.st0{fill:none;stroke:#000000;stroke-width:3;stroke-miterlimit:10;}
	.st1{fill:none;stroke:#000000;stroke-width:2;stroke-miterlimit:10;}
	.st2{fill:none;stroke:#FF00FF;stroke-width:0.25;stroke-miterlimit:10;}
	.st3{fill:#009245;stroke:#FBB03B;stroke-width:5;stroke-miterlimit:10;}
	.st4{fill:none;stroke:#000000;stroke-width:5;stroke-miterlimit:10;}
	.st5{fill:#00FF00;}
	.st6{fill:#C1272D;}
	.st7{fill:#FFFFFF;}
	.st8{fill:none;stroke:#000000;stroke-width:5;stroke-linecap:round;stroke-miterlimit:10;}
	.st9{fill:none;stroke:#000000;stroke-width:3;stroke-linecap:round;stroke-miterlimit:10;}
	.st10{fill:#FFFFFF;stroke:#000000;stroke-width:5;stroke-miterlimit:10;}
	.st11{fill:#FFFFFF;stroke:#000000;stroke-width:4;stroke-miterlimit:10;}
</style>
<g id="Layer_1">
	<g>
		<g>
			<g>
				<path d="M10.77,19.98L10.77,19.98l2.46,0v0H10.77z"/>
			</g>
			<g>
				<path d="M9.37,11.09L9.37,11.09l0.01-0.02C9.37,11.08,9.37,11.09,9.37,11.09z M9.37,11.09L9.37,11.09l0.01-0.02
					C9.37,11.08,9.37,11.09,9.37,11.09z"/>
			</g>
			<g>
				<g>
					<path class="st7" d="M9.38,11.07v0.02H9.37C9.37,11.09,9.37,11.08,9.38,11.07z"/>
				</g>
				<g>
					<path d="M9.37,11.09L9.37,11.09l0.01-0.02C9.37,11.08,9.37,11.09,9.37,11.09z"/>
				</g>
			</g>
			<g>
				<g>
					<path d="M19.24,11.39l-0.66-0.15c0.22-0.53,0.52-1.69-0.66-2.56c-1.24-0.92-1.43-1.26-1.45-1.36
						c-0.02,0.08-0.14,0.32-0.84,0.89c0-0.8-0.29-1.72-1.34-2.49c-1.92-1.42-2.21-1.94-2.24-2.1c-0.03,0.16-0.32,0.68-2.24,2.1
						C8.76,6.5,8.46,7.41,8.46,8.21c-0.7-0.57-0.82-0.8-0.84-0.89C7.6,7.43,7.42,7.76,6.18,8.68c-1.16,0.86-0.89,2-0.67,2.54
						l-0.74,0.17c-0.15,0.03-0.25,0.16-0.25,0.31v8.36c0,0.18,0.14,0.32,0.32,0.32h14.34c0.18,0,0.32-0.14,0.32-0.32V11.7
						C19.49,11.55,19.38,11.42,19.24,11.39z M5.65,19.98H4.91v-8.21l0.74-0.16V19.98z M8.98,19.98H6.09v-8.45h2.89V19.98z
						 M8.98,11.09H5.88c-0.06-0.15-0.13-0.36-0.16-0.6C5.65,9.9,5.88,9.39,6.41,9c0.6-0.44,0.98-0.77,1.21-1.01
						c0.19,0.19,0.47,0.44,0.88,0.76c0.11,0.68,0.39,1.2,0.47,1.34V11.09z M13.23,19.98h-2.46v-4.57c0-0.68,0.55-1.23,1.23-1.23
						s1.23,0.55,1.23,1.23V19.98z M14.67,19.98h-1.04v-4.57c0-0.9-0.73-1.63-1.63-1.63s-1.63,0.73-1.63,1.63v4.57H9.42v-8.01h5.25
						V19.98z M14.71,11.57H9.38v-0.48H9.37c0-0.01,0-0.01,0.01-0.02v-0.95h5.33V11.57z M14.87,9.69c-0.01,0.01-0.01,0.03-0.02,0.04
						H9.24C9.23,9.72,9.22,9.71,9.22,9.69C9.15,9.55,9.07,9.36,9,9.14c-0.05-0.17-0.1-0.37-0.12-0.58c0-0.01,0-0.01,0-0.02
						c-0.11-1,0.28-1.84,1.16-2.49c1.1-0.81,1.69-1.35,2.01-1.7c0.32,0.36,0.91,0.89,2.01,1.7c0.88,0.65,1.27,1.49,1.16,2.48
						c0,0,0,0.01,0,0.01v0c-0.03,0.22-0.07,0.42-0.13,0.6C15.01,9.37,14.93,9.56,14.87,9.69z M17.91,19.98h-2.8v-8.45h2.8V19.98z
						 M15.11,11.09v-1c0.08-0.14,0.36-0.66,0.47-1.33c0.42-0.32,0.7-0.57,0.89-0.77c0.24,0.24,0.61,0.56,1.21,1.01
						c0.52,0.39,0.76,0.88,0.7,1.47c-0.03,0.25-0.1,0.47-0.17,0.62H15.11z M19.09,19.98h-0.78v-8.39l0.13,0.03l0.65,0.14V19.98z"/>
				</g>
			</g>
		</g>
		<g>
			<path d="M10.37,20.37L10.37,20.37l3.26,0v0H10.37z"/>
		</g>
		<g>
			<path d="M7.55,14.43c-0.11,0-0.2-0.09-0.2-0.2v-1.59c0-0.11,0.09-0.2,0.2-0.2c0.11,0,0.2,0.09,0.2,0.2v1.59
				C7.75,14.35,7.66,14.43,7.55,14.43z"/>
		</g>
		<g>
			<path d="M7.55,18.96c-0.11,0-0.2-0.09-0.2-0.2v-1.59c0-0.11,0.09-0.2,0.2-0.2c0.11,0,0.2,0.09,0.2,0.2v1.59
				C7.75,18.88,7.66,18.96,7.55,18.96z"/>
		</g>
		<g>
			<path d="M16.58,14.41c-0.11,0-0.2-0.09-0.2-0.2v-1.59c0-0.11,0.09-0.2,0.2-0.2s0.2,0.09,0.2,0.2v1.59
				C16.78,14.32,16.69,14.41,16.58,14.41z"/>
		</g>
		<g>
			<path d="M16.58,18.94c-0.11,0-0.2-0.09-0.2-0.2v-1.59c0-0.11,0.09-0.2,0.2-0.2s0.2,0.09,0.2,0.2v1.59
				C16.78,18.85,16.69,18.94,16.58,18.94z"/>
		</g>
	</g>
</g>
<g id="Layer_2">
</g>
<g id="Layer_3">
</g>
</svg>
