<?xml version="1.0" standalone="no"?>
<!DOCTYPE svg PUBLIC "-//W3C//DTD SVG 20010904//EN"
 "http://www.w3.org/TR/2001/REC-SVG-20010904/DTD/svg10.dtd">
<svg version="1.0" xmlns="http://www.w3.org/2000/svg"
 width="280.000000pt" height="280.000000pt" viewBox="0 0 280.000000 280.000000"
 preserveAspectRatio="xMidYMid meet">
<metadata>
Created by potrace 1.14, written by Peter Selinger 2001-2017
</metadata>
<g transform="translate(0.000000,280.000000) scale(0.100000,-0.100000)"
fill="#000000" stroke="none">
<path d="M920 1790 l0 -240 120 0 119 0 3 123 3 122 208 3 c114 1 207 -1 207
-6 0 -5 -100 -256 -223 -558 l-224 -549 150 -3 c82 -1 152 0 154 2 3 3 104
253 224 557 l219 552 0 119 0 118 -480 0 -480 0 0 -240z"/>
</g>
</svg>
